<mxfile host="app.diagrams.net" modified="2021-01-14T22:58:10.076Z" agent="5.0 (Macintosh; Intel Mac OS X 10_14_4) AppleWebKit/537.36 (KHTML, like Gecko) Chrome/87.0.4280.88 Safari/537.36" etag="M_JIcJ-5ct30maJUf7sN" version="14.1.9" type="github">
  <diagram name="Page-1" id="c4acf3e9-155e-7222-9cf6-157b1a14988f">
    <mxGraphModel dx="1796" dy="480" grid="1" gridSize="10" guides="1" tooltips="1" connect="1" arrows="1" fold="1" page="1" pageScale="1" pageWidth="850" pageHeight="1100" background="#ffffff" math="0" shadow="0">
      <root>
        <mxCell id="0" />
        <mxCell id="1" parent="0" />
        <mxCell id="USKEhh2JhUIHj3QI9CC3-44" value="DaneAdresowe" style="swimlane;fontStyle=1;align=center;verticalAlign=top;childLayout=stackLayout;horizontal=1;startSize=26;horizontalStack=0;resizeParent=1;resizeParentMax=0;resizeLast=0;collapsible=1;marginBottom=0;" parent="1" vertex="1">
          <mxGeometry x="580" y="449" width="210" height="242" as="geometry" />
        </mxCell>
        <mxCell id="USKEhh2JhUIHj3QI9CC3-45" value="- kraj: Kraje" style="text;strokeColor=none;fillColor=none;align=left;verticalAlign=top;spacingLeft=4;spacingRight=4;overflow=hidden;rotatable=0;points=[[0,0.5],[1,0.5]];portConstraint=eastwest;" parent="USKEhh2JhUIHj3QI9CC3-44" vertex="1">
          <mxGeometry y="26" width="210" height="26" as="geometry" />
        </mxCell>
        <mxCell id="USKEhh2JhUIHj3QI9CC3-54" value="- miejsowosc: String" style="text;strokeColor=none;fillColor=none;align=left;verticalAlign=top;spacingLeft=4;spacingRight=4;overflow=hidden;rotatable=0;points=[[0,0.5],[1,0.5]];portConstraint=eastwest;" parent="USKEhh2JhUIHj3QI9CC3-44" vertex="1">
          <mxGeometry y="52" width="210" height="26" as="geometry" />
        </mxCell>
        <mxCell id="USKEhh2JhUIHj3QI9CC3-55" value="- kodpocztowy: String" style="text;strokeColor=none;fillColor=none;align=left;verticalAlign=top;spacingLeft=4;spacingRight=4;overflow=hidden;rotatable=0;points=[[0,0.5],[1,0.5]];portConstraint=eastwest;" parent="USKEhh2JhUIHj3QI9CC3-44" vertex="1">
          <mxGeometry y="78" width="210" height="26" as="geometry" />
        </mxCell>
        <mxCell id="USKEhh2JhUIHj3QI9CC3-61" value="- ulica: String" style="text;strokeColor=none;fillColor=none;align=left;verticalAlign=top;spacingLeft=4;spacingRight=4;overflow=hidden;rotatable=0;points=[[0,0.5],[1,0.5]];portConstraint=eastwest;" parent="USKEhh2JhUIHj3QI9CC3-44" vertex="1">
          <mxGeometry y="104" width="210" height="26" as="geometry" />
        </mxCell>
        <mxCell id="USKEhh2JhUIHj3QI9CC3-56" value="- nrdomu: String" style="text;strokeColor=none;fillColor=none;align=left;verticalAlign=top;spacingLeft=4;spacingRight=4;overflow=hidden;rotatable=0;points=[[0,0.5],[1,0.5]];portConstraint=eastwest;" parent="USKEhh2JhUIHj3QI9CC3-44" vertex="1">
          <mxGeometry y="130" width="210" height="26" as="geometry" />
        </mxCell>
        <mxCell id="USKEhh2JhUIHj3QI9CC3-57" value="- nrmieszk: short" style="text;strokeColor=none;fillColor=none;align=left;verticalAlign=top;spacingLeft=4;spacingRight=4;overflow=hidden;rotatable=0;points=[[0,0.5],[1,0.5]];portConstraint=eastwest;" parent="USKEhh2JhUIHj3QI9CC3-44" vertex="1">
          <mxGeometry y="156" width="210" height="26" as="geometry" />
        </mxCell>
        <mxCell id="USKEhh2JhUIHj3QI9CC3-46" value="" style="line;strokeWidth=1;fillColor=none;align=left;verticalAlign=middle;spacingTop=-1;spacingLeft=3;spacingRight=3;rotatable=0;labelPosition=right;points=[];portConstraint=eastwest;" parent="USKEhh2JhUIHj3QI9CC3-44" vertex="1">
          <mxGeometry y="182" width="210" height="8" as="geometry" />
        </mxCell>
        <mxCell id="USKEhh2JhUIHj3QI9CC3-47" value="+ zapiszDaneAdresowe()" style="text;strokeColor=none;fillColor=none;align=left;verticalAlign=top;spacingLeft=4;spacingRight=4;overflow=hidden;rotatable=0;points=[[0,0.5],[1,0.5]];portConstraint=eastwest;" parent="USKEhh2JhUIHj3QI9CC3-44" vertex="1">
          <mxGeometry y="190" width="210" height="26" as="geometry" />
        </mxCell>
        <mxCell id="USKEhh2JhUIHj3QI9CC3-73" value="+ edytujDaneAdresowe()" style="text;strokeColor=none;fillColor=none;align=left;verticalAlign=top;spacingLeft=4;spacingRight=4;overflow=hidden;rotatable=0;points=[[0,0.5],[1,0.5]];portConstraint=eastwest;" parent="USKEhh2JhUIHj3QI9CC3-44" vertex="1">
          <mxGeometry y="216" width="210" height="26" as="geometry" />
        </mxCell>
        <mxCell id="USKEhh2JhUIHj3QI9CC3-62" value="DaneKontaktowe" style="swimlane;fontStyle=1;align=center;verticalAlign=top;childLayout=stackLayout;horizontal=1;startSize=26;horizontalStack=0;resizeParent=1;resizeParentMax=0;resizeLast=0;collapsible=1;marginBottom=0;" parent="1" vertex="1">
          <mxGeometry x="390" y="449" width="160" height="138" as="geometry" />
        </mxCell>
        <mxCell id="USKEhh2JhUIHj3QI9CC3-63" value="- telefon: byte" style="text;strokeColor=none;fillColor=none;align=left;verticalAlign=top;spacingLeft=4;spacingRight=4;overflow=hidden;rotatable=0;points=[[0,0.5],[1,0.5]];portConstraint=eastwest;" parent="USKEhh2JhUIHj3QI9CC3-62" vertex="1">
          <mxGeometry y="26" width="160" height="26" as="geometry" />
        </mxCell>
        <mxCell id="USKEhh2JhUIHj3QI9CC3-66" value="- email: String" style="text;strokeColor=none;fillColor=none;align=left;verticalAlign=top;spacingLeft=4;spacingRight=4;overflow=hidden;rotatable=0;points=[[0,0.5],[1,0.5]];portConstraint=eastwest;" parent="USKEhh2JhUIHj3QI9CC3-62" vertex="1">
          <mxGeometry y="52" width="160" height="26" as="geometry" />
        </mxCell>
        <mxCell id="USKEhh2JhUIHj3QI9CC3-64" value="" style="line;strokeWidth=1;fillColor=none;align=left;verticalAlign=middle;spacingTop=-1;spacingLeft=3;spacingRight=3;rotatable=0;labelPosition=right;points=[];portConstraint=eastwest;" parent="USKEhh2JhUIHj3QI9CC3-62" vertex="1">
          <mxGeometry y="78" width="160" height="8" as="geometry" />
        </mxCell>
        <mxCell id="USKEhh2JhUIHj3QI9CC3-65" value="+ zapiszDaneKontaktowe()" style="text;strokeColor=none;fillColor=none;align=left;verticalAlign=top;spacingLeft=4;spacingRight=4;overflow=hidden;rotatable=0;points=[[0,0.5],[1,0.5]];portConstraint=eastwest;" parent="USKEhh2JhUIHj3QI9CC3-62" vertex="1">
          <mxGeometry y="86" width="160" height="26" as="geometry" />
        </mxCell>
        <mxCell id="USKEhh2JhUIHj3QI9CC3-74" value="+ edytujDaneKontaktowe()" style="text;strokeColor=none;fillColor=none;align=left;verticalAlign=top;spacingLeft=4;spacingRight=4;overflow=hidden;rotatable=0;points=[[0,0.5],[1,0.5]];portConstraint=eastwest;" parent="USKEhh2JhUIHj3QI9CC3-62" vertex="1">
          <mxGeometry y="112" width="160" height="26" as="geometry" />
        </mxCell>
        <mxCell id="USKEhh2JhUIHj3QI9CC3-67" value="&lt;&lt;dictionary&gt;&gt; &#xa;Kraje&#xa;" style="swimlane;fontStyle=1;align=center;verticalAlign=top;childLayout=stackLayout;horizontal=1;startSize=40;horizontalStack=0;resizeParent=1;resizeParentMax=0;resizeLast=0;collapsible=1;marginBottom=0;" parent="1" vertex="1">
          <mxGeometry x="850" y="474" width="160" height="152" as="geometry" />
        </mxCell>
        <mxCell id="USKEhh2JhUIHj3QI9CC3-72" value="+ id: int" style="text;strokeColor=none;fillColor=none;align=left;verticalAlign=top;spacingLeft=4;spacingRight=4;overflow=hidden;rotatable=0;points=[[0,0.5],[1,0.5]];portConstraint=eastwest;" parent="USKEhh2JhUIHj3QI9CC3-67" vertex="1">
          <mxGeometry y="40" width="160" height="26" as="geometry" />
        </mxCell>
        <mxCell id="USKEhh2JhUIHj3QI9CC3-68" value="+ nazwaKraju: String" style="text;strokeColor=none;fillColor=none;align=left;verticalAlign=top;spacingLeft=4;spacingRight=4;overflow=hidden;rotatable=0;points=[[0,0.5],[1,0.5]];portConstraint=eastwest;" parent="USKEhh2JhUIHj3QI9CC3-67" vertex="1">
          <mxGeometry y="66" width="160" height="26" as="geometry" />
        </mxCell>
        <mxCell id="USKEhh2JhUIHj3QI9CC3-69" value="" style="line;strokeWidth=1;fillColor=none;align=left;verticalAlign=middle;spacingTop=-1;spacingLeft=3;spacingRight=3;rotatable=0;labelPosition=right;points=[];portConstraint=eastwest;" parent="USKEhh2JhUIHj3QI9CC3-67" vertex="1">
          <mxGeometry y="92" width="160" height="8" as="geometry" />
        </mxCell>
        <mxCell id="USKEhh2JhUIHj3QI9CC3-70" value="+ zapiszKraj()" style="text;strokeColor=none;fillColor=none;align=left;verticalAlign=top;spacingLeft=4;spacingRight=4;overflow=hidden;rotatable=0;points=[[0,0.5],[1,0.5]];portConstraint=eastwest;" parent="USKEhh2JhUIHj3QI9CC3-67" vertex="1">
          <mxGeometry y="100" width="160" height="26" as="geometry" />
        </mxCell>
        <mxCell id="USKEhh2JhUIHj3QI9CC3-71" value="+ edytujKraj()" style="text;strokeColor=none;fillColor=none;align=left;verticalAlign=top;spacingLeft=4;spacingRight=4;overflow=hidden;rotatable=0;points=[[0,0.5],[1,0.5]];portConstraint=eastwest;" parent="USKEhh2JhUIHj3QI9CC3-67" vertex="1">
          <mxGeometry y="126" width="160" height="26" as="geometry" />
        </mxCell>
        <mxCell id="USKEhh2JhUIHj3QI9CC3-100" value="&lt;&lt;enumeration&gt;&gt; &#xa;TypyOsob&#xa;" style="swimlane;fontStyle=1;align=center;verticalAlign=top;childLayout=stackLayout;horizontal=1;startSize=40;horizontalStack=0;resizeParent=1;resizeParentMax=0;resizeLast=0;collapsible=1;marginBottom=0;" parent="1" vertex="1">
          <mxGeometry x="-100" y="480" width="160" height="152" as="geometry" />
        </mxCell>
        <mxCell id="USKEhh2JhUIHj3QI9CC3-101" value="+ id: int" style="text;strokeColor=none;fillColor=none;align=left;verticalAlign=top;spacingLeft=4;spacingRight=4;overflow=hidden;rotatable=0;points=[[0,0.5],[1,0.5]];portConstraint=eastwest;" parent="USKEhh2JhUIHj3QI9CC3-100" vertex="1">
          <mxGeometry y="40" width="160" height="26" as="geometry" />
        </mxCell>
        <mxCell id="USKEhh2JhUIHj3QI9CC3-102" value="+ nazwaKraju: String" style="text;strokeColor=none;fillColor=none;align=left;verticalAlign=top;spacingLeft=4;spacingRight=4;overflow=hidden;rotatable=0;points=[[0,0.5],[1,0.5]];portConstraint=eastwest;" parent="USKEhh2JhUIHj3QI9CC3-100" vertex="1">
          <mxGeometry y="66" width="160" height="26" as="geometry" />
        </mxCell>
        <mxCell id="USKEhh2JhUIHj3QI9CC3-103" value="" style="line;strokeWidth=1;fillColor=none;align=left;verticalAlign=middle;spacingTop=-1;spacingLeft=3;spacingRight=3;rotatable=0;labelPosition=right;points=[];portConstraint=eastwest;" parent="USKEhh2JhUIHj3QI9CC3-100" vertex="1">
          <mxGeometry y="92" width="160" height="8" as="geometry" />
        </mxCell>
        <mxCell id="USKEhh2JhUIHj3QI9CC3-104" value="+ zapiszKraj()" style="text;strokeColor=none;fillColor=none;align=left;verticalAlign=top;spacingLeft=4;spacingRight=4;overflow=hidden;rotatable=0;points=[[0,0.5],[1,0.5]];portConstraint=eastwest;" parent="USKEhh2JhUIHj3QI9CC3-100" vertex="1">
          <mxGeometry y="100" width="160" height="26" as="geometry" />
        </mxCell>
        <mxCell id="USKEhh2JhUIHj3QI9CC3-105" value="+ edytujKraj()" style="text;strokeColor=none;fillColor=none;align=left;verticalAlign=top;spacingLeft=4;spacingRight=4;overflow=hidden;rotatable=0;points=[[0,0.5],[1,0.5]];portConstraint=eastwest;" parent="USKEhh2JhUIHj3QI9CC3-100" vertex="1">
          <mxGeometry y="126" width="160" height="26" as="geometry" />
        </mxCell>
        <mxCell id="USKEhh2JhUIHj3QI9CC3-110" value="&lt;&lt;enumeration&gt;&gt; &#xa;Plec&#xa;" style="swimlane;fontStyle=1;align=center;verticalAlign=top;childLayout=stackLayout;horizontal=1;startSize=40;horizontalStack=0;resizeParent=1;resizeParentMax=0;resizeLast=0;collapsible=1;marginBottom=0;" parent="1" vertex="1">
          <mxGeometry x="510" y="860" width="160" height="152" as="geometry" />
        </mxCell>
        <mxCell id="USKEhh2JhUIHj3QI9CC3-111" value="+ id: int" style="text;strokeColor=none;fillColor=none;align=left;verticalAlign=top;spacingLeft=4;spacingRight=4;overflow=hidden;rotatable=0;points=[[0,0.5],[1,0.5]];portConstraint=eastwest;" parent="USKEhh2JhUIHj3QI9CC3-110" vertex="1">
          <mxGeometry y="40" width="160" height="26" as="geometry" />
        </mxCell>
        <mxCell id="USKEhh2JhUIHj3QI9CC3-112" value="+ oznaczeniePlci: String" style="text;strokeColor=none;fillColor=none;align=left;verticalAlign=top;spacingLeft=4;spacingRight=4;overflow=hidden;rotatable=0;points=[[0,0.5],[1,0.5]];portConstraint=eastwest;" parent="USKEhh2JhUIHj3QI9CC3-110" vertex="1">
          <mxGeometry y="66" width="160" height="26" as="geometry" />
        </mxCell>
        <mxCell id="USKEhh2JhUIHj3QI9CC3-113" value="" style="line;strokeWidth=1;fillColor=none;align=left;verticalAlign=middle;spacingTop=-1;spacingLeft=3;spacingRight=3;rotatable=0;labelPosition=right;points=[];portConstraint=eastwest;" parent="USKEhh2JhUIHj3QI9CC3-110" vertex="1">
          <mxGeometry y="92" width="160" height="8" as="geometry" />
        </mxCell>
        <mxCell id="USKEhh2JhUIHj3QI9CC3-114" value="+ zapiszPlec()" style="text;strokeColor=none;fillColor=none;align=left;verticalAlign=top;spacingLeft=4;spacingRight=4;overflow=hidden;rotatable=0;points=[[0,0.5],[1,0.5]];portConstraint=eastwest;" parent="USKEhh2JhUIHj3QI9CC3-110" vertex="1">
          <mxGeometry y="100" width="160" height="26" as="geometry" />
        </mxCell>
        <mxCell id="USKEhh2JhUIHj3QI9CC3-115" value="+ edytujPlec()" style="text;strokeColor=none;fillColor=none;align=left;verticalAlign=top;spacingLeft=4;spacingRight=4;overflow=hidden;rotatable=0;points=[[0,0.5],[1,0.5]];portConstraint=eastwest;" parent="USKEhh2JhUIHj3QI9CC3-110" vertex="1">
          <mxGeometry y="126" width="160" height="26" as="geometry" />
        </mxCell>
        <mxCell id="USKEhh2JhUIHj3QI9CC3-116" value="Osoba" style="swimlane;fontStyle=1;align=center;verticalAlign=top;childLayout=stackLayout;horizontal=1;startSize=26;horizontalStack=0;resizeParent=1;resizeParentMax=0;resizeLast=0;collapsible=1;marginBottom=0;" parent="1" vertex="1">
          <mxGeometry x="150" y="449" width="210" height="294" as="geometry" />
        </mxCell>
        <mxCell id="USKEhh2JhUIHj3QI9CC3-117" value="- idosoby: int&#xa;" style="text;strokeColor=none;fillColor=none;align=left;verticalAlign=top;spacingLeft=4;spacingRight=4;overflow=hidden;rotatable=0;points=[[0,0.5],[1,0.5]];portConstraint=eastwest;" parent="USKEhh2JhUIHj3QI9CC3-116" vertex="1">
          <mxGeometry y="26" width="210" height="26" as="geometry" />
        </mxCell>
        <mxCell id="USKEhh2JhUIHj3QI9CC3-118" value="- imie: String" style="text;strokeColor=none;fillColor=none;align=left;verticalAlign=top;spacingLeft=4;spacingRight=4;overflow=hidden;rotatable=0;points=[[0,0.5],[1,0.5]];portConstraint=eastwest;" parent="USKEhh2JhUIHj3QI9CC3-116" vertex="1">
          <mxGeometry y="52" width="210" height="26" as="geometry" />
        </mxCell>
        <mxCell id="USKEhh2JhUIHj3QI9CC3-119" value="- drugieimie: String" style="text;strokeColor=none;fillColor=none;align=left;verticalAlign=top;spacingLeft=4;spacingRight=4;overflow=hidden;rotatable=0;points=[[0,0.5],[1,0.5]];portConstraint=eastwest;" parent="USKEhh2JhUIHj3QI9CC3-116" vertex="1">
          <mxGeometry y="78" width="210" height="26" as="geometry" />
        </mxCell>
        <mxCell id="USKEhh2JhUIHj3QI9CC3-120" value="- nazwisko: String" style="text;strokeColor=none;fillColor=none;align=left;verticalAlign=top;spacingLeft=4;spacingRight=4;overflow=hidden;rotatable=0;points=[[0,0.5],[1,0.5]];portConstraint=eastwest;" parent="USKEhh2JhUIHj3QI9CC3-116" vertex="1">
          <mxGeometry y="104" width="210" height="26" as="geometry" />
        </mxCell>
        <mxCell id="USKEhh2JhUIHj3QI9CC3-121" value="- dataurodzenia: DateTime" style="text;strokeColor=none;fillColor=none;align=left;verticalAlign=top;spacingLeft=4;spacingRight=4;overflow=hidden;rotatable=0;points=[[0,0.5],[1,0.5]];portConstraint=eastwest;" parent="USKEhh2JhUIHj3QI9CC3-116" vertex="1">
          <mxGeometry y="130" width="210" height="26" as="geometry" />
        </mxCell>
        <mxCell id="USKEhh2JhUIHj3QI9CC3-122" value="- pesel: String" style="text;strokeColor=none;fillColor=none;align=left;verticalAlign=top;spacingLeft=4;spacingRight=4;overflow=hidden;rotatable=0;points=[[0,0.5],[1,0.5]];portConstraint=eastwest;" parent="USKEhh2JhUIHj3QI9CC3-116" vertex="1">
          <mxGeometry y="156" width="210" height="26" as="geometry" />
        </mxCell>
        <mxCell id="USKEhh2JhUIHj3QI9CC3-125" value="- typosoby: TypyOsob" style="text;strokeColor=none;fillColor=none;align=left;verticalAlign=top;spacingLeft=4;spacingRight=4;overflow=hidden;rotatable=0;points=[[0,0.5],[1,0.5]];portConstraint=eastwest;" parent="USKEhh2JhUIHj3QI9CC3-116" vertex="1">
          <mxGeometry y="182" width="210" height="26" as="geometry" />
        </mxCell>
        <mxCell id="USKEhh2JhUIHj3QI9CC3-126" value="" style="line;strokeWidth=1;fillColor=none;align=left;verticalAlign=middle;spacingTop=-1;spacingLeft=3;spacingRight=3;rotatable=0;labelPosition=right;points=[];portConstraint=eastwest;" parent="USKEhh2JhUIHj3QI9CC3-116" vertex="1">
          <mxGeometry y="208" width="210" height="8" as="geometry" />
        </mxCell>
        <mxCell id="USKEhh2JhUIHj3QI9CC3-127" value="+ zapiszDaneOsobowe()" style="text;strokeColor=none;fillColor=none;align=left;verticalAlign=top;spacingLeft=4;spacingRight=4;overflow=hidden;rotatable=0;points=[[0,0.5],[1,0.5]];portConstraint=eastwest;" parent="USKEhh2JhUIHj3QI9CC3-116" vertex="1">
          <mxGeometry y="216" width="210" height="26" as="geometry" />
        </mxCell>
        <mxCell id="USKEhh2JhUIHj3QI9CC3-128" value="+ edytujDaneAdresowe()" style="text;strokeColor=none;fillColor=none;align=left;verticalAlign=top;spacingLeft=4;spacingRight=4;overflow=hidden;rotatable=0;points=[[0,0.5],[1,0.5]];portConstraint=eastwest;" parent="USKEhh2JhUIHj3QI9CC3-116" vertex="1">
          <mxGeometry y="242" width="210" height="26" as="geometry" />
        </mxCell>
        <mxCell id="USKEhh2JhUIHj3QI9CC3-129" value="+ zaloguj()&#xa;" style="text;strokeColor=none;fillColor=none;align=left;verticalAlign=top;spacingLeft=4;spacingRight=4;overflow=hidden;rotatable=0;points=[[0,0.5],[1,0.5]];portConstraint=eastwest;" parent="USKEhh2JhUIHj3QI9CC3-116" vertex="1">
          <mxGeometry y="268" width="210" height="26" as="geometry" />
        </mxCell>
        <mxCell id="USKEhh2JhUIHj3QI9CC3-195" value="" style="endArrow=none;html=1;edgeStyle=orthogonalEdgeStyle;" parent="1" edge="1">
          <mxGeometry relative="1" as="geometry">
            <mxPoint x="60" y="550" as="sourcePoint" />
            <mxPoint x="150" y="550" as="targetPoint" />
          </mxGeometry>
        </mxCell>
        <mxCell id="USKEhh2JhUIHj3QI9CC3-229" value="" style="endArrow=diamondThin;endFill=1;endSize=24;html=1;entryX=0.638;entryY=1.077;entryDx=0;entryDy=0;entryPerimeter=0;exitX=0.295;exitY=0;exitDx=0;exitDy=0;exitPerimeter=0;" parent="1" edge="1">
          <mxGeometry width="160" relative="1" as="geometry">
            <mxPoint x="451.05000000000007" y="446.01" as="sourcePoint" />
            <mxPoint x="463.98" y="362.00199999999995" as="targetPoint" />
          </mxGeometry>
        </mxCell>
        <mxCell id="USKEhh2JhUIHj3QI9CC3-230" value="" style="endArrow=diamondThin;endFill=1;endSize=24;html=1;entryX=0.89;entryY=1.192;entryDx=0;entryDy=0;entryPerimeter=0;exitX=0.295;exitY=0;exitDx=0;exitDy=0;exitPerimeter=0;" parent="1" edge="1">
          <mxGeometry width="160" relative="1" as="geometry">
            <mxPoint x="707.0700000000002" y="449" as="sourcePoint" />
            <mxPoint x="516.9000000000001" y="364.99199999999996" as="targetPoint" />
          </mxGeometry>
        </mxCell>
        <mxCell id="USKEhh2JhUIHj3QI9CC3-231" value="" style="endArrow=none;html=1;edgeStyle=orthogonalEdgeStyle;" parent="1" edge="1">
          <mxGeometry relative="1" as="geometry">
            <mxPoint x="790" y="540" as="sourcePoint" />
            <mxPoint x="850" y="540" as="targetPoint" />
          </mxGeometry>
        </mxCell>
        <mxCell id="17acba5748e5396b-1" value="class" style="shape=umlFrame;whiteSpace=wrap;html=1;rounded=0;shadow=0;comic=0;labelBackgroundColor=none;strokeWidth=1;fontFamily=Verdana;fontSize=10;align=center;" parent="1" vertex="1">
          <mxGeometry x="-170" y="1500" width="1280" height="840" as="geometry" />
        </mxCell>
        <mxCell id="USKEhh2JhUIHj3QI9CC3-244" value="" style="endArrow=none;html=1;edgeStyle=orthogonalEdgeStyle;" parent="1" edge="1">
          <mxGeometry relative="1" as="geometry">
            <mxPoint x="360" y="520" as="sourcePoint" />
            <mxPoint x="390" y="520" as="targetPoint" />
          </mxGeometry>
        </mxCell>
        <mxCell id="USKEhh2JhUIHj3QI9CC3-252" value="" style="endArrow=none;html=1;edgeStyle=orthogonalEdgeStyle;exitX=1;exitY=0.5;exitDx=0;exitDy=0;" parent="1" source="USKEhh2JhUIHj3QI9CC3-122" edge="1">
          <mxGeometry relative="1" as="geometry">
            <mxPoint x="420" y="618" as="sourcePoint" />
            <mxPoint x="580" y="618" as="targetPoint" />
          </mxGeometry>
        </mxCell>
        <mxCell id="CAw1qZpy8YnnYkJR81Fb-5" value="Rodzic" style="swimlane;fontStyle=1;align=center;verticalAlign=top;childLayout=stackLayout;horizontal=1;startSize=26;horizontalStack=0;resizeParent=1;resizeParentMax=0;resizeLast=0;collapsible=1;marginBottom=0;" parent="1" vertex="1">
          <mxGeometry x="80" y="860" width="160" height="86" as="geometry" />
        </mxCell>
        <mxCell id="CAw1qZpy8YnnYkJR81Fb-6" value="- nrdoktozsam: String" style="text;strokeColor=none;fillColor=none;align=left;verticalAlign=top;spacingLeft=4;spacingRight=4;overflow=hidden;rotatable=0;points=[[0,0.5],[1,0.5]];portConstraint=eastwest;" parent="CAw1qZpy8YnnYkJR81Fb-5" vertex="1">
          <mxGeometry y="26" width="160" height="26" as="geometry" />
        </mxCell>
        <mxCell id="CAw1qZpy8YnnYkJR81Fb-7" value="" style="line;strokeWidth=1;fillColor=none;align=left;verticalAlign=middle;spacingTop=-1;spacingLeft=3;spacingRight=3;rotatable=0;labelPosition=right;points=[];portConstraint=eastwest;" parent="CAw1qZpy8YnnYkJR81Fb-5" vertex="1">
          <mxGeometry y="52" width="160" height="8" as="geometry" />
        </mxCell>
        <mxCell id="CAw1qZpy8YnnYkJR81Fb-8" value="+ zapiszDaneRodzica()" style="text;strokeColor=none;fillColor=none;align=left;verticalAlign=top;spacingLeft=4;spacingRight=4;overflow=hidden;rotatable=0;points=[[0,0.5],[1,0.5]];portConstraint=eastwest;" parent="CAw1qZpy8YnnYkJR81Fb-5" vertex="1">
          <mxGeometry y="60" width="160" height="26" as="geometry" />
        </mxCell>
        <mxCell id="CAw1qZpy8YnnYkJR81Fb-9" value="Dziecko" style="swimlane;fontStyle=1;align=center;verticalAlign=top;childLayout=stackLayout;horizontal=1;startSize=26;horizontalStack=0;resizeParent=1;resizeParentMax=0;resizeLast=0;collapsible=1;marginBottom=0;" parent="1" vertex="1">
          <mxGeometry x="280" y="860" width="160" height="86" as="geometry" />
        </mxCell>
        <mxCell id="CAw1qZpy8YnnYkJR81Fb-10" value="- plec: Plec" style="text;strokeColor=none;fillColor=none;align=left;verticalAlign=top;spacingLeft=4;spacingRight=4;overflow=hidden;rotatable=0;points=[[0,0.5],[1,0.5]];portConstraint=eastwest;" parent="CAw1qZpy8YnnYkJR81Fb-9" vertex="1">
          <mxGeometry y="26" width="160" height="26" as="geometry" />
        </mxCell>
        <mxCell id="CAw1qZpy8YnnYkJR81Fb-11" value="" style="line;strokeWidth=1;fillColor=none;align=left;verticalAlign=middle;spacingTop=-1;spacingLeft=3;spacingRight=3;rotatable=0;labelPosition=right;points=[];portConstraint=eastwest;" parent="CAw1qZpy8YnnYkJR81Fb-9" vertex="1">
          <mxGeometry y="52" width="160" height="8" as="geometry" />
        </mxCell>
        <mxCell id="CAw1qZpy8YnnYkJR81Fb-12" value="+ zapiszDaneDziecka(type): type" style="text;strokeColor=none;fillColor=none;align=left;verticalAlign=top;spacingLeft=4;spacingRight=4;overflow=hidden;rotatable=0;points=[[0,0.5],[1,0.5]];portConstraint=eastwest;" parent="CAw1qZpy8YnnYkJR81Fb-9" vertex="1">
          <mxGeometry y="60" width="160" height="26" as="geometry" />
        </mxCell>
        <mxCell id="CAw1qZpy8YnnYkJR81Fb-13" value="" style="endArrow=none;html=1;edgeStyle=orthogonalEdgeStyle;" parent="1" edge="1">
          <mxGeometry relative="1" as="geometry">
            <mxPoint x="440" y="890" as="sourcePoint" />
            <mxPoint x="510" y="890" as="targetPoint" />
          </mxGeometry>
        </mxCell>
        <mxCell id="CAw1qZpy8YnnYkJR81Fb-16" value="" style="endArrow=block;endSize=16;endFill=0;html=1;entryX=0.367;entryY=1.115;entryDx=0;entryDy=0;entryPerimeter=0;exitX=0.331;exitY=-0.047;exitDx=0;exitDy=0;exitPerimeter=0;" parent="1" source="CAw1qZpy8YnnYkJR81Fb-5" target="USKEhh2JhUIHj3QI9CC3-129" edge="1">
          <mxGeometry width="160" relative="1" as="geometry">
            <mxPoint x="130" y="840" as="sourcePoint" />
            <mxPoint x="290" y="840" as="targetPoint" />
          </mxGeometry>
        </mxCell>
        <mxCell id="CAw1qZpy8YnnYkJR81Fb-17" value="Extends" style="endArrow=block;endSize=16;endFill=0;html=1;exitX=0.45;exitY=-0.058;exitDx=0;exitDy=0;exitPerimeter=0;entryX=0.619;entryY=1.154;entryDx=0;entryDy=0;entryPerimeter=0;" parent="1" source="CAw1qZpy8YnnYkJR81Fb-9" target="USKEhh2JhUIHj3QI9CC3-129" edge="1">
          <mxGeometry width="160" relative="1" as="geometry">
            <mxPoint x="270" y="750" as="sourcePoint" />
            <mxPoint x="430" y="750" as="targetPoint" />
          </mxGeometry>
        </mxCell>
        <mxCell id="CAw1qZpy8YnnYkJR81Fb-18" value="Rodzina" style="swimlane;fontStyle=3;align=center;verticalAlign=top;childLayout=stackLayout;horizontal=1;startSize=26;horizontalStack=0;resizeParent=1;resizeParentMax=0;resizeLast=0;collapsible=1;marginBottom=0;" parent="1" vertex="1">
          <mxGeometry x="170" y="1030" width="160" height="86" as="geometry" />
        </mxCell>
        <mxCell id="CAw1qZpy8YnnYkJR81Fb-19" value="+ id: int" style="text;strokeColor=none;fillColor=none;align=left;verticalAlign=top;spacingLeft=4;spacingRight=4;overflow=hidden;rotatable=0;points=[[0,0.5],[1,0.5]];portConstraint=eastwest;" parent="CAw1qZpy8YnnYkJR81Fb-18" vertex="1">
          <mxGeometry y="26" width="160" height="26" as="geometry" />
        </mxCell>
        <mxCell id="CAw1qZpy8YnnYkJR81Fb-20" value="" style="line;strokeWidth=1;fillColor=none;align=left;verticalAlign=middle;spacingTop=-1;spacingLeft=3;spacingRight=3;rotatable=0;labelPosition=right;points=[];portConstraint=eastwest;" parent="CAw1qZpy8YnnYkJR81Fb-18" vertex="1">
          <mxGeometry y="52" width="160" height="8" as="geometry" />
        </mxCell>
        <mxCell id="CAw1qZpy8YnnYkJR81Fb-21" value="+ zapiszRodzine(type)" style="text;strokeColor=none;fillColor=none;align=left;verticalAlign=top;spacingLeft=4;spacingRight=4;overflow=hidden;rotatable=0;points=[[0,0.5],[1,0.5]];portConstraint=eastwest;" parent="CAw1qZpy8YnnYkJR81Fb-18" vertex="1">
          <mxGeometry y="60" width="160" height="26" as="geometry" />
        </mxCell>
        <mxCell id="CAw1qZpy8YnnYkJR81Fb-22" value="" style="endArrow=block;endSize=16;endFill=0;html=1;" parent="1" edge="1">
          <mxGeometry width="160" relative="1" as="geometry">
            <mxPoint x="140" y="950" as="sourcePoint" />
            <mxPoint x="230" y="1028" as="targetPoint" />
          </mxGeometry>
        </mxCell>
        <mxCell id="CAw1qZpy8YnnYkJR81Fb-24" value="" style="endArrow=block;endSize=16;endFill=0;html=1;entryX=0.656;entryY=-0.023;entryDx=0;entryDy=0;exitX=0.475;exitY=1.115;exitDx=0;exitDy=0;exitPerimeter=0;entryPerimeter=0;" parent="1" source="CAw1qZpy8YnnYkJR81Fb-12" target="CAw1qZpy8YnnYkJR81Fb-18" edge="1">
          <mxGeometry width="160" relative="1" as="geometry">
            <mxPoint x="150" y="960" as="sourcePoint" />
            <mxPoint x="211.03999999999996" y="1038.022" as="targetPoint" />
          </mxGeometry>
        </mxCell>
      </root>
    </mxGraphModel>
  </diagram>
</mxfile>
